<svg width="439" height="458" viewBox="0 0 439 458" fill="none" xmlns="http://www.w3.org/2000/svg">
<path d="M74 124.5V71.5L176.5 15L222.5 39M74 124.5L154 181M74 124.5L13 159.5V293.5L61.5 326M61.5 326L154 293.5M61.5 326V375.5L176.5 443L222.5 414M222.5 414V39M222.5 414L264 443L378 375.5V326M222.5 39L264 15L370 71.5V124.5M370 124.5L288 181M370 124.5L426.5 159.5V293.5L378 326M378 326L288 293.5" stroke="black" stroke-width="25"/>
<circle cx="287.5" cy="183.5" r="19.5" fill="black"/>
<circle cx="156.5" cy="183.5" r="19.5" fill="black"/>
<circle cx="156.5" cy="292.5" r="19.5" fill="black"/>
<circle cx="287.5" cy="292.5" r="19.5" fill="black"/>
</svg>
